<svg xmlns="http://www.w3.org/2000/svg" viewBox="0 0 1200 630" width="1200" height="630">
  <defs>
    <radialGradient id="bgGrad" cx="50%" cy="50%" r="70%">
      <stop offset="0%" stop-color="#3d2a1a"/>
      <stop offset="100%" stop-color="#1a0f08"/>
    </radialGradient>
    <linearGradient id="goldGrad" x1="0%" y1="0%" x2="0%" y2="100%">
      <stop offset="0%" stop-color="#f0d080"/>
      <stop offset="50%" stop-color="#c8962a"/>
      <stop offset="100%" stop-color="#8b5e10"/>
    </linearGradient>
    <linearGradient id="shieldGrad" x1="0%" y1="0%" x2="0%" y2="100%">
      <stop offset="0%" stop-color="#2a1a0a"/>
      <stop offset="100%" stop-color="#1a0f05"/>
    </linearGradient>
    <filter id="glow">
      <feGaussianBlur stdDeviation="3" result="blur"/>
      <feMerge><feMergeNode in="blur"/><feMergeNode in="SourceGraphic"/></feMerge>
    </filter>
  </defs>
  <rect width="1200" height="630" fill="url(#bgGrad)"/>
  <rect x="12" y="12" width="1176" height="606" rx="8" fill="none" stroke="url(#goldGrad)" stroke-width="2" opacity="0.6"/>
  <g stroke="#c8962a" stroke-width="1.5" fill="none" opacity="0.5">
    <rect x="20" y="20" width="120" height="80" rx="4"/>
    <circle cx="20" cy="20" r="4" fill="#c8962a"/>
    <circle cx="140" cy="20" r="4" fill="#c8962a"/>
    <line x1="60" y1="20" x2="60" y2="50"/>
    <line x1="100" y1="20" x2="100" y2="40"/>
    <line x1="20" y1="60" x2="50" y2="60"/>
  </g>
  <g stroke="#c8962a" stroke-width="1.5" fill="none" opacity="0.5" transform="scale(-1,1) translate(-1200,0)">
    <rect x="20" y="20" width="120" height="80" rx="4"/>
    <circle cx="20" cy="20" r="4" fill="#c8962a"/>
    <line x1="60" y1="20" x2="60" y2="50"/>
    <line x1="20" y1="60" x2="50" y2="60"/>
  </g>
  <g transform="translate(600, 60)">
    <path d="M0,-130 L110,-80 L110,40 Q110,130 0,165 Q-110,130 -110,40 L-110,-80 Z" fill="url(#goldGrad)" filter="url(#glow)"/>
    <path d="M0,-118 L98,-72 L98,38 Q98,118 0,150 Q-98,118 -98,38 L-98,-72 Z" fill="url(#shieldGrad)"/>
    <text x="0" y="55" text-anchor="middle" font-size="90" font-family="serif">💩</text>
  </g>
  <text x="600" y="390" text-anchor="middle" font-family="Georgia, serif" font-size="108" font-weight="bold" fill="url(#goldGrad)" filter="url(#glow)" letter-spacing="2">v💩Guardian</text>
  <text x="600" y="455" text-anchor="middle" font-family="'Courier New', monospace" font-size="32" fill="#c8962a" letter-spacing="6">A_EQUALS_A = True</text>
  <line x1="300" y1="490" x2="900" y2="490" stroke="#c8962a" stroke-width="1" opacity="0.4"/>
  <text x="600" y="530" text-anchor="middle" font-family="Georgia, serif" font-size="22" fill="#8a6030" letter-spacing="3">Open Source  ·  Built for Devs  ·  Secured by Logic</text>
</svg>